<svg width="180" height="60" viewBox="0 0 180 60" fill="none" xmlns="http://www.w3.org/2000/svg">
<rect x="0.5" y="0.5" width="179" height="58.832" rx="9.5" fill="black" stroke="#A6A6A6"/>
<path d="M62.9276 16.637C62.9276 17.7541 62.5968 18.6437 61.9342 19.3073C61.1817 20.0964 60.2009 20.4912 58.9952 20.4912C57.8405 20.4912 56.8588 20.0912 56.0514 19.2901C55.2426 18.4896 54.8391 17.4969 54.8391 16.3125C54.8391 15.1276 55.2426 14.1354 56.0514 13.3344C56.8588 12.5338 57.8405 12.1333 58.9952 12.1333C59.5681 12.1333 60.1166 12.2453 60.6374 12.4688C61.1582 12.6928 61.576 12.9901 61.8885 13.3625L61.1853 14.0661C60.6557 13.4333 59.9265 13.1172 58.9952 13.1172C58.153 13.1172 57.4249 13.413 56.8104 14.0052C56.1957 14.598 55.8885 15.3666 55.8885 16.3125C55.8885 17.2584 56.1957 18.027 56.8104 18.6198C57.4249 19.212 58.153 19.5078 58.9952 19.5078C59.8885 19.5078 60.6333 19.2104 61.2296 18.6146C61.6166 18.2265 61.8405 17.687 61.9004 16.9942H58.9952V16.0333H62.8718C62.9093 16.2422 62.9276 16.4428 62.9276 16.637Z" fill="white"/>
<path d="M62.9276 16.637H62.7943C62.7932 17.7286 62.4744 18.5765 61.84 19.213L61.8385 19.2141L61.838 19.2152C61.1094 19.977 60.1728 20.3562 58.9952 20.3578C57.8713 20.3562 56.9307 19.9729 56.1452 19.1958C55.3615 18.4172 54.9739 17.4666 54.9724 16.3125C54.9739 15.1578 55.3615 14.2078 56.1452 13.4297C56.9307 12.6521 57.8713 12.2682 58.9952 12.2666C59.5509 12.2666 60.0801 12.375 60.5848 12.5912C61.09 12.8089 61.4891 13.0942 61.7864 13.4485L61.8885 13.3625L61.7943 13.2682L61.0911 13.9724L61.1853 14.0661L61.288 13.9808C60.7338 13.3166 59.9557 12.9818 58.9952 12.9838C58.1219 12.9828 57.3536 13.2948 56.7181 13.9094C56.0765 14.5261 55.7541 15.338 55.7552 16.3125C55.7541 17.287 56.0765 18.0989 56.7181 18.7156C57.3536 19.3302 58.1219 19.6422 58.9952 19.6412C59.9181 19.6428 60.7047 19.3297 61.3239 18.7089C61.7375 18.2942 61.9719 17.7198 62.0333 17.0057L62.0457 16.8609H59.1285V16.1666H62.8719V16.0333L62.7405 16.0568C62.7771 16.2589 62.7943 16.451 62.7943 16.637H62.9276H63.061C63.061 16.4344 63.0421 16.2261 63.0031 16.0094L62.9833 15.9H58.8619V16.9942V17.1276H61.9004V16.9942L61.7676 16.9828C61.7088 17.6537 61.4952 18.1589 61.1353 18.5204C60.5624 19.0912 59.8593 19.3729 58.9952 19.3745C58.1843 19.3734 57.4963 19.0942 56.9031 18.524C56.3156 17.9557 56.0233 17.2302 56.0219 16.3125C56.0233 15.3948 56.3156 14.6693 56.9031 14.101C57.4963 13.5308 58.1843 13.2516 58.9952 13.2505C59.8968 13.2526 60.5776 13.5505 61.0833 14.1521L61.1771 14.2636L61.9828 13.4568L62.0692 13.3704L61.9905 13.277C61.6629 12.8865 61.2265 12.5765 60.69 12.3464C60.1525 12.1156 59.5853 12 58.9952 12C57.8099 11.9989 56.7869 12.4156 55.9572 13.2401C55.1244 14.063 54.7047 15.0974 54.7058 16.3125C54.7047 17.527 55.1244 18.562 55.9577 19.3854C56.7869 20.2094 57.8099 20.6256 58.9952 20.6245C60.2296 20.6256 61.2536 20.2156 62.0307 19.3994L61.9343 19.3073L62.0285 19.4016C62.7192 18.7114 63.0619 17.7792 63.061 16.637H62.9276Z" fill="white"/>
<path d="M69.0733 13.2953H65.4301V15.8319H68.7156V16.7932H65.4301V19.3297H69.0733V20.3125H64.4031V12.3125H69.0733V13.2953Z" fill="white"/>
<path d="M69.0733 13.2953V13.162H65.2968V15.9652H68.5822V16.6595L65.2968 16.6599V19.4631H68.94V20.1792H64.5364V12.4459H68.94V13.2953H69.0733V13.162V13.2953H69.2066V12.3125V12.1792H64.2697V20.4459H69.2066V19.3297V19.1964H65.5634V16.9265H68.8489V15.8319V15.6985H65.5634V13.4287H69.2066V13.2953H69.0733Z" fill="white"/>
<path d="M73.4083 20.3125H72.3796V13.2953H70.1452V12.3125H75.6427V13.2953H73.4083V20.3125Z" fill="white"/>
<path d="M73.4082 20.3125V20.1792H72.5129V13.162H70.2785V12.4459H75.5093V13.162H73.2749V20.3125H73.4082V20.1792V20.3125H73.5416V13.4287H75.776V12.3125V12.1792H70.0118V13.2953V13.4287H72.2462V20.4459H73.4082H73.5416V20.3125H73.4082Z" fill="white"/>
<path d="M79.6202 20.3125V12.3125H80.6478V20.3125H79.6202Z" fill="white"/>
<path d="M79.6203 20.3125H79.7536V12.4459H80.5145V20.1792H79.6203V20.3125H79.7536H79.6203V20.4459H80.6479H80.7812V12.1792H79.6203H79.4869V20.4459H79.6203V20.3125Z" fill="white"/>
<path d="M85.2077 20.3125H84.179V13.2953H81.9448V12.3125H87.4421V13.2953H85.2077V20.3125Z" fill="white"/>
<path d="M85.2077 20.3125V20.1792H84.3124V13.162H82.0781V12.4459H87.3088V13.162H85.0744V20.3125H85.2077V20.1792V20.3125H85.3411V13.4287H87.5755V12.3125V12.1792H81.8115V13.2953V13.4287H84.0457V20.4459H85.2077H85.3411V20.3125H85.2077Z" fill="white"/>
<path d="M92.7422 18.6089C93.3343 19.2084 94.0588 19.5078 94.9156 19.5078C95.7724 19.5078 96.4973 19.2084 97.0885 18.6089C97.6812 18.0094 97.9781 17.2432 97.9781 16.3125C97.9781 15.3818 97.6812 14.6156 97.0885 14.0161C96.4973 13.4166 95.7724 13.1172 94.9156 13.1172C94.0588 13.1172 93.3343 13.4166 92.7422 14.0161C92.151 14.6156 91.8542 15.3818 91.8542 16.3125C91.8542 17.2432 92.151 18.0094 92.7422 18.6089ZM97.8489 19.2786C97.0624 20.0874 96.0843 20.4912 94.9156 20.4912C93.7457 20.4912 92.7681 20.0874 91.9833 19.2786C91.1963 18.4708 90.8047 17.4818 90.8047 16.3125C90.8047 15.1432 91.1963 14.1541 91.9833 13.3464C92.7681 12.5374 93.7457 12.1333 94.9156 12.1333C96.0781 12.1333 97.0536 12.5396 97.8437 13.3516C98.6328 14.1636 99.0276 15.1505 99.0276 16.3125C99.0276 17.4818 98.6337 18.4708 97.8489 19.2786Z" fill="white"/>
<path d="M92.7421 18.6089L92.6473 18.7026C93.2615 19.3261 94.0276 19.6428 94.9156 19.6412C95.8031 19.6428 96.5703 19.3261 97.1833 18.7026C97.8015 18.0786 98.1124 17.2713 98.1115 16.3125C98.1124 15.3537 97.8015 14.5464 97.1833 13.9224C96.5703 13.2989 95.8031 12.9822 94.9156 12.9838C94.0276 12.9822 93.2615 13.2989 92.6473 13.9224C92.0307 14.5464 91.7192 15.3537 91.7208 16.3125C91.7192 17.2713 92.0307 18.0786 92.6473 18.7026L92.7421 18.6089L92.8369 18.5152C92.2713 17.9396 91.9885 17.2156 91.9875 16.3125C91.9885 15.4094 92.2713 14.6854 92.8369 14.1098C93.4077 13.5344 94.0895 13.2521 94.9156 13.2505C95.7411 13.2521 96.4244 13.5344 96.9937 14.1098C97.5604 14.6854 97.8432 15.4094 97.8443 16.3125C97.8432 17.2156 97.5604 17.9396 96.9937 18.5152C96.4244 19.0906 95.7411 19.3729 94.9156 19.3745C94.0895 19.3729 93.4077 19.0906 92.8369 18.5152L92.7421 18.6089ZM97.8489 19.2786L97.7536 19.186C96.9891 19.9693 96.0541 20.3562 94.9156 20.3578C93.7765 20.3562 92.8416 19.9693 92.0785 19.186L92.0749 19.1818L92.0785 19.186C91.3156 18.4 90.9391 17.4521 90.938 16.3125C90.9391 15.1729 91.3156 14.225 92.0785 13.439C92.8416 12.6557 93.7765 12.2682 94.9156 12.2666C96.0468 12.2682 96.9796 12.6573 97.7484 13.4448C98.514 14.2344 98.8927 15.1808 98.8943 16.3125C98.8927 17.4521 98.5151 18.4 97.7536 19.186L97.8489 19.2786L97.9448 19.3713C98.7531 18.5412 99.1619 17.5114 99.1609 16.3125C99.1619 15.1204 98.7515 14.0928 97.9395 13.2589C97.1271 12.4218 96.1093 11.9985 94.9156 12C93.7156 11.9985 92.6948 12.4198 91.8875 13.2537V13.2532C91.0776 14.0838 90.6703 15.1136 90.6713 16.3125C90.6703 17.5114 91.0776 18.5412 91.8875 19.3718L91.8911 19.3756L91.8875 19.3713C92.6948 20.2052 93.7156 20.6256 94.9156 20.6245C96.1151 20.6256 97.1359 20.2052 97.9448 19.3713L97.8489 19.2786Z" fill="white"/>
<path d="M100.47 20.3125V12.3125H101.721L105.609 18.536H105.654L105.609 16.9943V12.3125H106.638V20.3125H105.565L101.497 13.7875H101.453L101.497 15.3297V20.3125H100.47Z" fill="white"/>
<path d="M100.47 20.3125H100.604V12.4459H101.647L105.535 18.6693H105.654H105.791L105.743 16.9923V12.4459H106.505V20.1792H105.639L101.571 13.6541H101.453H101.316L101.364 15.3319V20.1792H100.47V20.3125H100.604H100.47V20.4459H101.497H101.631V15.3276L101.586 13.7839L101.453 13.7875V13.9208H101.497V13.7875L101.384 13.8584L105.491 20.4459H106.638H106.771V12.1792H105.609H105.476V16.9959L105.52 18.5396L105.654 18.536V18.4027H105.609V18.536L105.722 18.4652L101.795 12.1792H100.47H100.337V20.4459H100.47V20.3125Z" fill="white"/>
<path d="M142.284 42.9792H144.772V26.3109H142.284V42.9792ZM164.694 32.3152L161.842 39.5417H161.756L158.796 32.3152H156.116L160.555 42.4156L158.024 48.0339H160.62L167.46 32.3152H164.694ZM150.584 41.086C149.768 41.086 148.632 40.6787 148.632 39.6704C148.632 38.3839 150.048 37.8907 151.27 37.8907C152.364 37.8907 152.878 38.1265 153.543 38.4485C153.35 39.9923 152.02 41.086 150.584 41.086ZM150.884 31.9505C149.083 31.9505 147.218 32.7443 146.446 34.5027L148.654 35.4245C149.126 34.5027 150.004 34.2021 150.927 34.2021C152.214 34.2021 153.522 34.9745 153.543 36.3469V36.5183C153.092 36.2609 152.128 35.8751 150.948 35.8751C148.568 35.8751 146.144 37.1828 146.144 39.6276C146.144 41.8579 148.096 43.2948 150.283 43.2948C151.956 43.2948 152.878 42.5443 153.458 41.6652H153.543V42.9516H155.944V36.5609C155.944 33.6021 153.736 31.9505 150.884 31.9505ZM135.508 34.3443H131.97V28.6308H135.508C137.368 28.6308 138.424 30.1708 138.424 31.4875C138.424 32.7792 137.368 34.3443 135.508 34.3443ZM135.444 26.3109H129.483V42.9792H131.97V36.6641H135.444C138.202 36.6641 140.912 34.6677 140.912 31.4875C140.912 28.3073 138.202 26.3109 135.444 26.3109ZM102.936 41.0891C101.218 41.0891 99.7785 39.65 99.7785 37.6735C99.7785 35.6761 101.218 34.2152 102.936 34.2152C104.633 34.2152 105.965 35.6761 105.965 37.6735C105.965 39.65 104.633 41.0891 102.936 41.0891ZM105.793 33.2485H105.707C105.149 32.5828 104.074 31.9813 102.721 31.9813C99.8859 31.9813 97.2869 34.4729 97.2869 37.6735C97.2869 40.8527 99.8859 43.3229 102.721 43.3229C104.074 43.3229 105.149 42.7213 105.707 42.0344H105.793V42.8505C105.793 45.0204 104.633 46.1803 102.765 46.1803C101.239 46.1803 100.294 45.0844 99.9072 44.1609L97.738 45.0631C98.3609 46.5667 100.015 48.4141 102.765 48.4141C105.686 48.4141 108.156 46.6953 108.156 42.5068V32.3251H105.793V33.2485ZM109.874 42.9792H112.366V26.3104H109.874V42.9792ZM116.039 37.4803C115.975 35.2891 117.736 34.1724 119.004 34.1724C119.992 34.1724 120.83 34.6661 121.108 35.3756L116.039 37.4803ZM123.772 35.5901C123.3 34.3224 121.86 31.9813 118.918 31.9813C115.996 31.9813 113.569 34.2797 113.569 37.6521C113.569 40.8313 115.975 43.3229 119.197 43.3229C121.796 43.3229 123.3 41.7333 123.923 40.8099L121.99 39.5208C121.346 40.4661 120.464 41.0891 119.197 41.0891C117.93 41.0891 117.028 40.5089 116.447 39.3708L124.03 36.2344L123.772 35.5901ZM63.3615 33.7213V36.1271H69.1181C68.9463 37.4803 68.4952 38.4683 67.8077 39.1557C66.9703 39.9937 65.6599 40.9172 63.3615 40.9172C59.8171 40.9172 57.0463 38.0604 57.0463 34.5161C57.0463 30.9719 59.8171 28.1147 63.3615 28.1147C65.2733 28.1147 66.6692 28.8667 67.7004 29.8333L69.3973 28.1365C67.9583 26.7615 66.0463 25.7089 63.3615 25.7089C58.5067 25.7089 54.4255 29.6615 54.4255 34.5161C54.4255 39.3708 58.5067 43.3229 63.3615 43.3229C65.9823 43.3229 67.9583 42.4641 69.5047 40.8527C71.0943 39.2631 71.5885 37.0292 71.5885 35.2251C71.5885 34.6661 71.5457 34.1511 71.4593 33.7213H63.3615ZM78.1333 41.0891C76.4145 41.0891 74.9323 39.6713 74.9323 37.6521C74.9323 35.6115 76.4145 34.2152 78.1333 34.2152C79.8515 34.2152 81.3337 35.6115 81.3337 37.6521C81.3337 39.6713 79.8515 41.0891 78.1333 41.0891ZM78.1333 31.9813C74.9968 31.9813 72.4405 34.3656 72.4405 37.6521C72.4405 40.9172 74.9968 43.3229 78.1333 43.3229C81.2692 43.3229 83.8255 40.9172 83.8255 37.6521C83.8255 34.3656 81.2692 31.9813 78.1333 31.9813ZM90.5509 41.0891C88.8328 41.0891 87.3504 39.6713 87.3504 37.6521C87.3504 35.6115 88.8328 34.2152 90.5509 34.2152C92.2692 34.2152 93.7515 35.6115 93.7515 37.6521C93.7515 39.6713 92.2692 41.0891 90.5509 41.0891ZM90.5509 31.9813C87.4145 31.9813 84.8588 34.3656 84.8588 37.6521C84.8588 40.9172 87.4145 43.3229 90.5509 43.3229C93.6869 43.3229 96.2432 40.9172 96.2432 37.6521C96.2432 34.3656 93.6869 31.9813 90.5509 31.9813Z" fill="white"/>
<path d="M13.7161 46.1652L13.6171 46.0704C13.2291 45.6599 13 45.0224 13 44.1969V44.3912V14.9032C13 14.9005 13 14.8985 13 14.8964C13 14.8989 13 14.9011 13 14.9037V15.0985C13 14.2047 13.2671 13.5313 13.7145 13.1276L30.2343 29.6469L13.7161 46.1652ZM13 14.8948C13 14.8213 13.002 14.75 13.0057 14.6797C13.002 14.7495 13 14.8213 13 14.8948ZM13.0057 14.6765C13.0057 14.6756 13.0057 14.6745 13.0061 14.6735C13.0057 14.6745 13.0057 14.6756 13.0057 14.6765ZM13.0061 14.6672C13.0061 14.6667 13.0061 14.6661 13.0061 14.6656C13.0061 14.6661 13.0061 14.6667 13.0061 14.6672Z" fill="url(#paint0_linear)"/>
<path d="M35.74 35.3505L35.8656 35.2792L42.3895 31.5724C43.0115 31.2188 43.426 30.7901 43.6328 30.3365C43.4265 30.7901 43.0119 31.2193 42.3895 31.5729L35.8656 35.2797L35.74 35.3505ZM35.7416 35.1552L30.2343 29.6469L35.7411 24.1396L42.3895 27.9167C43.2337 28.3964 43.7077 29.0147 43.7869 29.6464C43.7869 29.6469 43.7869 29.648 43.7869 29.6489C43.7077 30.2792 43.2337 30.898 42.3895 31.3776L35.7416 35.1552Z" fill="url(#paint1_linear)"/>
<path d="M14.8938 46.7943C14.4323 46.7943 14.0296 46.6443 13.7156 46.3609L13.7162 46.3604C14.0302 46.6437 14.4334 46.7943 14.8948 46.7943C14.9348 46.7943 14.9755 46.7932 15.0167 46.7912C14.975 46.7932 14.9338 46.7943 14.8938 46.7943ZM14.8943 46.5989C14.4328 46.5994 14.0302 46.4489 13.7162 46.1656V46.1652L30.2343 29.6469L35.7416 35.1552L16.388 46.1516C15.8526 46.4552 15.3452 46.5989 14.8943 46.5989ZM13.7115 46.3573C13.6823 46.3308 13.6536 46.3026 13.6255 46.2734L13.7115 46.3573Z" fill="url(#paint2_linear)"/>
<path d="M30.2343 29.6469L13.7145 13.1276C14.0285 12.8448 14.4307 12.6948 14.8916 12.6948C15.3437 12.6948 15.8515 12.839 16.388 13.1432L35.7411 24.1396L30.2343 29.6469ZM35.8656 24.0152L16.388 12.9485C15.8515 12.6442 15.3437 12.5 14.8916 12.5C14.8895 12.5 14.888 12.5 14.8859 12.5C14.8885 12.5 14.8905 12.5 14.8937 12.5C15.3448 12.5 15.852 12.6437 16.388 12.948L35.8656 24.0152Z" fill="url(#paint3_linear)"/>
<path d="M15.0167 46.7912C15.4359 46.7672 15.9 46.6229 16.388 46.3464L35.74 35.3505L16.388 46.3464C15.9004 46.6235 15.4359 46.7672 15.0167 46.7912ZM13.7156 46.3609L13.7115 46.3573C13.7129 46.3584 13.7145 46.3599 13.7156 46.3609ZM13.6255 46.2735L13.6171 46.2652V46.2647C13.6203 46.2677 13.6228 46.2708 13.6255 46.2735Z" fill="black"/>
<path d="M35.74 35.3505L35.8656 35.2792L35.74 35.3505Z" fill="url(#paint4_linear)"/>
<path d="M14.8948 46.7943C14.4333 46.7943 14.0301 46.6437 13.7161 46.3604L13.7156 46.3609C13.7145 46.3599 13.7129 46.3584 13.7115 46.3573L13.6255 46.2734C13.6228 46.2708 13.6203 46.2677 13.6171 46.2647L13.7161 46.1656C14.0301 46.4489 14.4328 46.5994 14.8943 46.5989C15.3452 46.5989 15.8525 46.4552 16.388 46.1516L35.7416 35.1552L35.8656 35.2792L35.74 35.3505L16.388 46.3464C15.9 46.6229 15.4359 46.7672 15.0167 46.7912C14.9755 46.7932 14.9348 46.7943 14.8948 46.7943Z" fill="url(#paint5_linear)"/>
<path d="M13.6171 46.2652C13.2291 45.8547 13 45.2172 13 44.3917V44.3912C13 45.2172 13.2291 45.8541 13.6171 46.2647V46.2652Z" fill="black"/>
<path d="M13.6171 46.2646C13.2291 45.8541 13 45.2172 13 44.3912V44.1969C13 45.0224 13.2291 45.6598 13.6171 46.0704L13.7161 46.1652L13.6171 46.2646Z" fill="url(#paint6_linear)"/>
<path d="M13.6171 46.2646L13.7161 46.1652V46.1656L13.6171 46.2646Z" fill="url(#paint7_linear)"/>
<path d="M43.6328 30.3365C43.7353 30.1115 43.7869 29.8803 43.7869 29.6489C43.7869 29.6485 43.7869 29.648 43.7869 29.648C43.7869 29.8797 43.7353 30.1109 43.6328 30.3365Z" fill="black"/>
<path d="M35.8656 35.2792L35.7416 35.1552L42.3894 31.3776C43.2337 30.898 43.7077 30.2792 43.7869 29.6489C43.7869 29.8802 43.7353 30.1114 43.6328 30.3365C43.426 30.7901 43.0114 31.2188 42.3894 31.5724L35.8656 35.2792Z" fill="url(#paint8_linear)"/>
<path d="M43.7869 29.6469V29.6464C43.7864 28.9489 43.3203 28.2516 42.3895 27.7224L35.8656 24.0156H35.8651L35.8656 24.0152L42.3895 27.7218C43.3213 28.251 43.788 28.9494 43.7869 29.6469Z" fill="#404040"/>
<path d="M43.787 29.6464C43.7078 29.0147 43.2338 28.3964 42.3895 27.9167L35.7411 24.1396L35.8651 24.0156H35.8656L42.3895 27.7224C43.3203 28.2516 43.7864 28.9489 43.787 29.6464Z" fill="url(#paint9_linear)"/>
<path d="M13 14.8964C13 14.8959 13 14.8953 13 14.8948C13 14.8953 13 14.8959 13 14.8964ZM13.0057 14.6797C13.0057 14.6787 13.0057 14.6776 13.0057 14.6765C13.0057 14.6776 13.0057 14.6787 13.0057 14.6797ZM13.0061 14.6735C13.0061 14.6713 13.0061 14.6693 13.0061 14.6672C13.0061 14.6693 13.0061 14.6713 13.0061 14.6735ZM13.0061 14.6656C13.0833 13.2959 13.8281 12.5047 14.8817 12.5C14.4249 12.5027 14.0271 12.6527 13.7156 12.9333V12.9328L13.7119 12.9365C13.6791 12.9661 13.6479 12.9975 13.6171 13.0297C13.2671 13.4 13.0463 13.9547 13.0061 14.6656Z" fill="#404040"/>
<path d="M13 15.0985V14.9037C13 14.901 13 14.8989 13 14.8964C13 14.8958 13 14.8953 13 14.8948C13 14.8213 13.002 14.7494 13.0057 14.6797C13.0057 14.6786 13.0057 14.6776 13.0057 14.6765C13.0057 14.6756 13.0057 14.6745 13.0061 14.6734C13.0061 14.6713 13.0061 14.6693 13.0061 14.6672C13.0061 14.6666 13.0061 14.6661 13.0061 14.6656C13.0463 13.9546 13.2671 13.4 13.6171 13.0297L13.7145 13.1276C13.2671 13.5313 13 14.2046 13 15.0985ZM13.7119 12.9365L13.7156 12.9328C13.7145 12.9344 13.7129 12.9354 13.7119 12.9365Z" fill="url(#paint10_linear)"/>
<path d="M35.7411 24.1396L16.388 13.1432C15.8515 12.8391 15.3437 12.6948 14.8916 12.6948C14.4307 12.6948 14.0285 12.8448 13.7145 13.1276L13.6171 13.0297C13.6479 12.9975 13.6791 12.9661 13.7119 12.9365C13.7129 12.9355 13.7145 12.9344 13.7156 12.9333C14.0271 12.6527 14.4249 12.5027 14.8817 12.5C14.8828 12.5 14.8843 12.5 14.8859 12.5C14.888 12.5 14.8895 12.5 14.8916 12.5C15.3437 12.5 15.8515 12.6443 16.388 12.9485L35.8656 24.0152L35.8651 24.0156L35.7411 24.1396Z" fill="url(#paint11_linear)"/>
<defs>
<linearGradient id="paint0_linear" x1="28.7695" y1="14.5921" x2="6.3928" y2="36.9688" gradientUnits="userSpaceOnUse">
<stop stop-color="#00A0FF"/>
<stop offset="0.00657445" stop-color="#00A1FF"/>
<stop offset="0.2601" stop-color="#00BEFF"/>
<stop offset="0.5122" stop-color="#00D2FF"/>
<stop offset="0.7604" stop-color="#00DFFF"/>
<stop offset="1" stop-color="#00E3FF"/>
</linearGradient>
<linearGradient id="paint1_linear" x1="44.8156" y1="29.6477" x2="12.5529" y2="29.6477" gradientUnits="userSpaceOnUse">
<stop stop-color="#FFE000"/>
<stop offset="0.4087" stop-color="#FFBD00"/>
<stop offset="0.7754" stop-color="#FFA500"/>
<stop offset="1" stop-color="#FF9C00"/>
</linearGradient>
<linearGradient id="paint2_linear" x1="32.8058" y1="32.7073" x2="2.46135" y2="63.0517" gradientUnits="userSpaceOnUse">
<stop stop-color="#FF3A44"/>
<stop offset="1" stop-color="#C31162"/>
</linearGradient>
<linearGradient id="paint3_linear" x1="9.4328" y1="3.21411" x2="22.9828" y2="16.7641" gradientUnits="userSpaceOnUse">
<stop stop-color="#32A071"/>
<stop offset="0.0685" stop-color="#2DA771"/>
<stop offset="0.4762" stop-color="#15CF74"/>
<stop offset="0.8009" stop-color="#06E775"/>
<stop offset="1" stop-color="#00F076"/>
</linearGradient>
<linearGradient id="paint4_linear" x1="44.8155" y1="29.6477" x2="12.5533" y2="29.6477" gradientUnits="userSpaceOnUse">
<stop stop-color="#CCB300"/>
<stop offset="0.4087" stop-color="#CC9700"/>
<stop offset="0.7754" stop-color="#CC8400"/>
<stop offset="1" stop-color="#CC7D00"/>
</linearGradient>
<linearGradient id="paint5_linear" x1="32.8057" y1="32.7073" x2="2.46133" y2="63.0517" gradientUnits="userSpaceOnUse">
<stop stop-color="#CC2E36"/>
<stop offset="1" stop-color="#9C0E4E"/>
</linearGradient>
<linearGradient id="paint6_linear" x1="28.7695" y1="14.5921" x2="6.39279" y2="36.9688" gradientUnits="userSpaceOnUse">
<stop stop-color="#008DE0"/>
<stop offset="0.00657445" stop-color="#008DE0"/>
<stop offset="0.2601" stop-color="#00A7E0"/>
<stop offset="0.5122" stop-color="#00B8E0"/>
<stop offset="0.7604" stop-color="#00C4E0"/>
<stop offset="1" stop-color="#00C7E0"/>
</linearGradient>
<linearGradient id="paint7_linear" x1="32.806" y1="32.7073" x2="2.46154" y2="63.0521" gradientUnits="userSpaceOnUse">
<stop stop-color="#E0333C"/>
<stop offset="1" stop-color="#AB0F56"/>
</linearGradient>
<linearGradient id="paint8_linear" x1="44.8156" y1="29.6477" x2="12.5529" y2="29.6477" gradientUnits="userSpaceOnUse">
<stop stop-color="#E0C500"/>
<stop offset="0.4087" stop-color="#E0A600"/>
<stop offset="0.7754" stop-color="#E09100"/>
<stop offset="1" stop-color="#E08900"/>
</linearGradient>
<linearGradient id="paint9_linear" x1="44.8156" y1="29.6477" x2="12.553" y2="29.6477" gradientUnits="userSpaceOnUse">
<stop stop-color="#FFE840"/>
<stop offset="0.4087" stop-color="#FFCE40"/>
<stop offset="0.7754" stop-color="#FFBC40"/>
<stop offset="1" stop-color="#FFB540"/>
</linearGradient>
<linearGradient id="paint10_linear" x1="28.7694" y1="14.5921" x2="6.3928" y2="36.9687" gradientUnits="userSpaceOnUse">
<stop stop-color="#40B8FF"/>
<stop offset="0.00657445" stop-color="#40B9FF"/>
<stop offset="0.2601" stop-color="#40CEFF"/>
<stop offset="0.5122" stop-color="#40DDFF"/>
<stop offset="0.7604" stop-color="#40E7FF"/>
<stop offset="1" stop-color="#40EAFF"/>
</linearGradient>
<linearGradient id="paint11_linear" x1="9.4328" y1="3.21412" x2="22.9828" y2="16.7641" gradientUnits="userSpaceOnUse">
<stop stop-color="#65B895"/>
<stop offset="0.0685" stop-color="#62BD95"/>
<stop offset="0.4762" stop-color="#50DB97"/>
<stop offset="0.8009" stop-color="#44ED98"/>
<stop offset="1" stop-color="#40F498"/>
</linearGradient>
</defs>
</svg>
