<svg width="180" height="60" viewBox="0 0 180 60" fill="none" xmlns="http://www.w3.org/2000/svg">
<rect x="0.5" y="0.5" width="179" height="58.832" rx="9.5" fill="black" stroke="#A6A6A6"/>
<path d="M37.2583 28.7955C37.2745 27.5435 37.6079 26.3159 38.2277 25.227C38.8475 24.1381 39.7334 23.2232 40.803 22.5674C40.1235 21.5997 39.2271 20.8033 38.1849 20.2414C37.1428 19.6796 35.9836 19.3678 34.7995 19.3309C32.2736 19.0665 29.8248 20.8381 28.5376 20.8381C27.2255 20.8381 25.2437 19.3571 23.1097 19.4009C21.7293 19.4454 20.384 19.8457 19.2049 20.5628C18.0258 21.2798 17.053 22.2893 16.3815 23.4927C13.4723 28.5154 15.6423 35.8969 18.429 39.9568C19.8232 41.9449 21.4527 44.1655 23.5849 44.0868C25.6713 44.0005 26.4505 42.7601 28.969 42.7601C31.4642 42.7601 32.1953 44.0868 34.3707 44.0367C36.6095 44.0005 38.0201 42.0399 39.3654 40.033C40.3672 38.6165 41.138 37.0509 41.6494 35.3942C40.3487 34.8457 39.2387 33.9274 38.4579 32.7539C37.677 31.5805 37.2598 30.2038 37.2583 28.7955Z" fill="white"/>
<path d="M33.1493 16.6608C34.37 15.1995 34.9714 13.3212 34.8258 11.4249C32.9608 11.6202 31.2381 12.509 30.0009 13.9143C29.396 14.6008 28.9327 15.3994 28.6375 16.2646C28.3423 17.1297 28.221 18.0444 28.2805 18.9564C29.2134 18.9659 30.1362 18.7643 30.9795 18.3667C31.8229 17.9691 32.5648 17.3858 33.1493 16.6608Z" fill="white"/>
<path d="M63.6322 39.0539H56.5121L54.8023 44.0886H51.7865L58.5305 25.4616H61.6638L68.4077 44.0886H65.3405L63.6322 39.0539ZM57.2495 36.7307H62.8933L60.1111 28.5598H60.0333L57.2495 36.7307Z" fill="white"/>
<path d="M82.9725 37.299C82.9725 41.5192 80.7073 44.2307 77.2891 44.2307C76.4232 44.2758 75.562 44.0769 74.8042 43.6567C74.0464 43.2365 73.4226 42.612 73.0042 41.8547H72.9395V48.5812H70.144V30.508H72.8499V32.7668H72.9013C73.339 32.0131 73.9733 31.3918 74.7369 30.969C75.5005 30.5463 76.3647 30.3378 77.2377 30.3659C80.6941 30.3659 82.9725 33.0905 82.9725 37.299ZM80.0992 37.299C80.0992 34.5495 78.6743 32.7419 76.5002 32.7419C74.3644 32.7419 72.9277 34.5876 72.9277 37.299C72.9277 40.0354 74.3644 41.8679 76.5002 41.8679C78.6743 41.8679 80.0992 40.0734 80.0992 37.299Z" fill="white"/>
<path d="M97.9616 37.299C97.9616 41.5193 95.6965 44.2307 92.2782 44.2307C91.4123 44.2759 90.5512 44.0769 89.7933 43.6567C89.0355 43.2365 88.4117 42.612 87.9933 41.8547H87.9286V48.5813H85.1332V30.508H87.839V32.7668H87.8904C88.3281 32.0131 88.9624 31.3918 89.726 30.9691C90.4896 30.5463 91.3538 30.3379 92.2268 30.3659C95.6833 30.3659 97.9616 33.0905 97.9616 37.299ZM95.0883 37.299C95.0883 34.5495 93.6634 32.7419 91.4894 32.7419C89.3535 32.7419 87.9169 34.5876 87.9169 37.299C87.9169 40.0354 89.3535 41.8679 91.4894 41.8679C93.6635 41.8679 95.0883 40.0735 95.0883 37.299H95.0883Z" fill="white"/>
<path d="M107.868 38.8986C108.075 40.7458 109.875 41.9586 112.334 41.9586C114.69 41.9586 116.385 40.7458 116.385 39.0802C116.385 37.6344 115.363 36.7687 112.942 36.1754L110.521 35.5939C107.091 34.7677 105.499 33.1681 105.499 30.5724C105.499 27.3585 108.308 25.151 112.296 25.151C116.243 25.151 118.949 27.3585 119.04 30.5724H116.218C116.049 28.7135 114.508 27.5914 112.256 27.5914C110.004 27.5914 108.463 28.7267 108.463 30.379C108.463 31.6959 109.447 32.4708 111.855 33.064L113.913 33.568C117.745 34.4718 119.338 36.007 119.338 38.7315C119.338 42.2164 116.554 44.399 112.127 44.399C107.984 44.399 105.187 42.2677 105.007 38.8985L107.868 38.8986Z" fill="white"/>
<path d="M125.371 27.2942V30.508H127.961V32.7155H125.371V40.2024C125.371 41.3654 125.889 41.9074 127.028 41.9074C127.335 41.9021 127.642 41.8806 127.947 41.8429V44.0373C127.436 44.1326 126.915 44.1758 126.395 44.1662C123.638 44.1662 122.562 43.1335 122.562 40.4997V32.7155H120.582V30.508H122.562V27.2942H125.371Z" fill="white"/>
<path d="M129.461 37.299C129.461 33.0261 131.984 30.341 135.92 30.341C139.868 30.341 142.38 33.026 142.38 37.299C142.38 41.5837 139.881 44.257 135.92 44.257C131.959 44.257 129.461 41.5837 129.461 37.299ZM139.532 37.299C139.532 34.3679 138.185 32.6379 135.92 32.6379C133.654 32.6379 132.309 34.3811 132.309 37.299C132.309 40.2419 133.654 41.9587 135.92 41.9587C138.185 41.9587 139.532 40.2419 139.532 37.299H139.532Z" fill="white"/>
<path d="M144.685 30.508H147.351V32.8195H147.416C147.596 32.0976 148.02 31.4596 148.617 31.0128C149.213 30.5659 149.946 30.3375 150.691 30.3659C151.014 30.3648 151.335 30.3997 151.649 30.4699V33.0773C151.242 32.9534 150.818 32.8965 150.393 32.9089C149.987 32.8925 149.582 32.9639 149.206 33.1182C148.831 33.2725 148.493 33.5061 148.216 33.803C147.939 34.0998 147.73 34.4528 147.603 34.8378C147.476 35.2229 147.434 35.6307 147.48 36.0334V44.0886H144.685L144.685 30.508Z" fill="white"/>
<path d="M164.538 40.0998C164.162 42.5651 161.754 44.257 158.674 44.257C154.712 44.257 152.253 41.6101 152.253 37.3635C152.253 33.1037 154.725 30.341 158.556 30.341C162.324 30.341 164.693 32.9221 164.693 37.0398V37.9948H155.075V38.1633C155.03 38.6631 155.093 39.1666 155.259 39.6404C155.424 40.1141 155.689 40.5473 156.036 40.9111C156.382 41.2749 156.803 41.5611 157.268 41.7505C157.734 41.94 158.235 42.0284 158.738 42.01C159.399 42.0717 160.062 41.9191 160.628 41.575C161.195 41.2308 161.635 40.7134 161.883 40.0998L164.538 40.0998ZM155.088 36.0466H161.896C161.922 35.5972 161.853 35.1475 161.696 34.7257C161.538 34.3039 161.295 33.9191 160.981 33.5954C160.668 33.2718 160.29 33.0163 159.873 32.8449C159.456 32.6736 159.007 32.5902 158.556 32.5998C158.101 32.5971 157.65 32.6843 157.228 32.8564C156.807 33.0286 156.424 33.2822 156.102 33.6026C155.779 33.9231 155.524 34.304 155.35 34.7235C155.176 35.143 155.087 35.5927 155.088 36.0466V36.0466Z" fill="white"/>
<path d="M56.8992 11.441C57.4853 11.3991 58.0734 11.4874 58.6211 11.6995C59.1688 11.9117 59.6624 12.2424 60.0664 12.6678C60.4704 13.0932 60.7747 13.6028 60.9573 14.1597C61.14 14.7166 61.1963 15.307 61.1225 15.8883C61.1225 18.7476 59.5727 20.3913 56.8992 20.3913H53.6572V11.441H56.8992ZM55.0513 19.1255H56.7435C57.1623 19.1505 57.5814 19.082 57.9703 18.9251C58.3592 18.7682 58.7081 18.5267 58.9916 18.2184C59.2751 17.91 59.4862 17.5425 59.6093 17.1426C59.7324 16.7427 59.7646 16.3204 59.7034 15.9065C59.7602 15.4943 59.7247 15.0746 59.5997 14.6776C59.4747 14.2806 59.2631 13.9161 58.9803 13.6102C58.6974 13.3043 58.3501 13.0646 57.9634 12.9082C57.5767 12.7519 57.1601 12.6828 56.7435 12.7058H55.0513V19.1255Z" fill="white"/>
<path d="M62.6972 17.011C62.6546 16.5671 62.7055 16.1193 62.8467 15.6962C62.9878 15.2731 63.2161 14.8841 63.5169 14.5541C63.8176 14.2241 64.1842 13.9605 64.5931 13.78C65.0021 13.5996 65.4443 13.5064 65.8914 13.5064C66.3386 13.5064 66.7808 13.5996 67.1897 13.78C67.5986 13.9605 67.9652 14.2241 68.266 14.5541C68.5667 14.8841 68.795 15.2731 68.9362 15.6962C69.0773 16.1193 69.1282 16.5671 69.0857 17.011C69.1291 17.4553 69.0787 17.9038 68.938 18.3276C68.7972 18.7514 68.569 19.1411 68.2682 19.4717C67.9674 19.8024 67.6005 20.0666 67.1912 20.2474C66.7818 20.4282 66.3391 20.5216 65.8914 20.5216C65.4437 20.5216 65.001 20.4282 64.5917 20.2474C64.1823 20.0666 63.8155 19.8024 63.5146 19.4717C63.2138 19.1411 62.9857 18.7514 62.8449 18.3276C62.7041 17.9038 62.6538 17.4553 62.6972 17.011ZM67.7107 17.011C67.7107 15.5469 67.0511 14.6907 65.8936 14.6907C64.7317 14.6907 64.078 15.5469 64.078 17.011C64.078 18.4869 64.7317 19.3365 65.8936 19.3365C67.0512 19.3364 67.7107 18.481 67.7107 17.011H67.7107Z" fill="white"/>
<path d="M77.5777 20.3911H76.191L74.7911 15.4165H74.6854L73.2913 20.3911H71.9178L70.0508 13.6367H71.4066L72.62 18.7907H72.7199L74.1125 13.6367H75.3949L76.7874 18.7907H76.8932L78.1007 13.6367H79.4374L77.5777 20.3911Z" fill="white"/>
<path d="M81.0077 13.6367H82.2945V14.7097H82.3944C82.5638 14.3243 82.8497 14.0013 83.212 13.7856C83.5743 13.5699 83.9951 13.4723 84.4157 13.5063C84.7452 13.4816 85.0762 13.5312 85.3839 13.6513C85.6917 13.7715 85.9684 13.9591 86.1935 14.2004C86.4187 14.4417 86.5865 14.7304 86.6846 15.0451C86.7827 15.3598 86.8085 15.6925 86.7601 16.0185V20.391H85.4234V16.3533C85.4234 15.2678 84.9504 14.728 83.9618 14.728C83.738 14.7176 83.5146 14.7556 83.307 14.8394C83.0993 14.9231 82.9122 15.0506 82.7586 15.2132C82.605 15.3758 82.4885 15.5696 82.417 15.7813C82.3455 15.993 82.3207 16.2176 82.3444 16.4397V20.3911H81.0077L81.0077 13.6367Z" fill="white"/>
<path d="M88.8901 11H90.2269V20.3911H88.8901V11Z" fill="white"/>
<path d="M92.0851 17.011C92.0426 16.5671 92.0935 16.1192 92.2347 15.6961C92.3759 15.273 92.6042 14.8839 92.905 14.5539C93.2058 14.224 93.5724 13.9603 93.9814 13.7799C94.3903 13.5995 94.8326 13.5063 95.2798 13.5063C95.7269 13.5063 96.1692 13.5995 96.5781 13.7799C96.9871 13.9603 97.3537 14.224 97.6545 14.5539C97.9553 14.8839 98.1836 15.273 98.3248 15.6961C98.466 16.1192 98.5169 16.5671 98.4744 17.011C98.5177 17.4553 98.4673 17.9038 98.3265 18.3276C98.1857 18.7514 97.9575 19.1411 97.6566 19.4717C97.3558 19.8023 96.9889 20.0665 96.5795 20.2473C96.1702 20.4281 95.7275 20.5215 95.2798 20.5215C94.8321 20.5215 94.3893 20.4281 93.98 20.2473C93.5706 20.0665 93.2037 19.8023 92.9029 19.4717C92.602 19.1411 92.3738 18.7514 92.233 18.3276C92.0922 17.9038 92.0418 17.4553 92.0851 17.011ZM97.0987 17.011C97.0987 15.5469 96.4391 14.6907 95.2816 14.6907C94.1196 14.6907 93.466 15.5469 93.466 17.011C93.466 18.4868 94.1197 19.3364 95.2816 19.3364C96.4391 19.3364 97.0987 18.4809 97.0987 17.011H97.0987Z" fill="white"/>
<path d="M99.8816 18.481C99.8816 17.2652 100.789 16.5642 102.401 16.4646L104.236 16.3592V15.7761C104.236 15.0628 103.763 14.6599 102.849 14.6599C102.103 14.6599 101.586 14.9331 101.437 15.4107H100.143C100.28 14.2505 101.374 13.5064 102.911 13.5064C104.609 13.5064 105.566 14.3494 105.566 15.7761V20.3911H104.28V19.4419H104.174C103.959 19.7824 103.658 20.06 103.3 20.2463C102.943 20.4326 102.542 20.521 102.139 20.5024C101.855 20.5319 101.568 20.5017 101.296 20.4136C101.024 20.3256 100.773 20.1817 100.561 19.9912C100.348 19.8008 100.178 19.568 100.061 19.3079C99.9437 19.0477 99.8827 18.7661 99.8816 18.481ZM104.236 17.9038V17.3391L102.582 17.4446C101.649 17.5068 101.226 17.8233 101.226 18.4187C101.226 19.0266 101.754 19.3804 102.482 19.3804C102.695 19.4019 102.91 19.3804 103.115 19.3173C103.319 19.2542 103.509 19.1506 103.673 19.0129C103.836 18.8751 103.97 18.7059 104.067 18.5154C104.164 18.3249 104.221 18.1169 104.236 17.9038Z" fill="white"/>
<path d="M107.323 17.011C107.323 14.8767 108.424 13.5247 110.135 13.5247C110.558 13.5052 110.978 13.6063 111.346 13.8162C111.714 14.026 112.014 14.3359 112.212 14.7097H112.312V11H113.649V20.3911H112.368V19.324H112.262C112.049 19.6952 111.738 20.0012 111.363 20.209C110.988 20.4167 110.564 20.5182 110.135 20.5024C108.412 20.5025 107.323 19.1504 107.323 17.011ZM108.704 17.011C108.704 18.4436 109.381 19.3057 110.514 19.3057C111.641 19.3057 112.337 18.4312 112.337 17.0169C112.337 15.6092 111.633 14.7222 110.514 14.7222C109.389 14.7222 108.704 15.5901 108.704 17.011H108.704Z" fill="white"/>
<path d="M119.179 17.011C119.137 16.5671 119.188 16.1193 119.329 15.6962C119.47 15.2731 119.698 14.8841 119.999 14.5541C120.3 14.2241 120.666 13.9605 121.075 13.78C121.484 13.5996 121.926 13.5064 122.373 13.5064C122.821 13.5064 123.263 13.5996 123.672 13.78C124.081 13.9605 124.447 14.2241 124.748 14.5541C125.049 14.8841 125.277 15.2731 125.418 15.6962C125.559 16.1193 125.61 16.5671 125.568 17.011C125.611 17.4553 125.561 17.9038 125.42 18.3276C125.279 18.7514 125.051 19.1411 124.75 19.4717C124.449 19.8024 124.083 20.0666 123.673 20.2474C123.264 20.4282 122.821 20.5216 122.373 20.5216C121.926 20.5216 121.483 20.4282 121.074 20.2474C120.664 20.0666 120.298 19.8024 119.997 19.4717C119.696 19.1411 119.468 18.7514 119.327 18.3276C119.186 17.9038 119.136 17.4553 119.179 17.011ZM124.193 17.011C124.193 15.5469 123.533 14.6907 122.376 14.6907C121.214 14.6907 120.56 15.5469 120.56 17.011C120.56 18.4869 121.214 19.3365 122.376 19.3365C123.533 19.3364 124.193 18.481 124.193 17.011Z" fill="white"/>
<path d="M127.361 13.6367H128.648V14.7097H128.748C128.917 14.3243 129.203 14.0013 129.566 13.7856C129.928 13.5699 130.349 13.4723 130.769 13.5063C131.099 13.4816 131.43 13.5312 131.738 13.6513C132.045 13.7715 132.322 13.9591 132.547 14.2004C132.772 14.4417 132.94 14.7304 133.038 15.0451C133.136 15.3598 133.162 15.6925 133.114 16.0185V20.391H131.777V16.3533C131.777 15.2678 131.304 14.728 130.315 14.728C130.092 14.7176 129.868 14.7556 129.661 14.8394C129.453 14.9231 129.266 15.0506 129.112 15.2132C128.959 15.3758 128.842 15.5696 128.771 15.7813C128.699 15.993 128.674 16.2176 128.698 16.4397V20.3911H127.361V13.6367Z" fill="white"/>
<path d="M140.667 11.9551V13.6675H142.135V14.7903H140.667V18.2634C140.667 18.971 140.959 19.2808 141.625 19.2808C141.795 19.2802 141.965 19.2699 142.135 19.25V20.3603C141.895 20.4032 141.651 20.426 141.408 20.4285C139.921 20.4285 139.329 19.907 139.329 18.6047V14.7902H138.254V13.6674H139.329V11.9551H140.667Z" fill="white"/>
<path d="M143.961 11H145.286V14.7222H145.391C145.569 14.3332 145.863 14.0083 146.232 13.7918C146.602 13.5753 147.029 13.4776 147.457 13.5122C147.784 13.4944 148.112 13.549 148.416 13.6721C148.721 13.7951 148.994 13.9836 149.217 14.2241C149.44 14.4647 149.606 14.7512 149.705 15.0634C149.804 15.3756 149.833 15.7058 149.789 16.0303V20.3911H148.451V16.3591C148.451 15.2803 147.947 14.7339 147.003 14.7339C146.773 14.7151 146.542 14.7466 146.326 14.8262C146.109 14.9057 145.913 15.0315 145.751 15.1946C145.588 15.3577 145.464 15.5542 145.385 15.7704C145.307 15.9866 145.277 16.2173 145.297 16.4463V20.3911H143.961L143.961 11Z" fill="white"/>
<path d="M157.584 18.5674C157.402 19.1847 157.009 19.7187 156.472 20.0759C155.935 20.4331 155.29 20.5908 154.649 20.5215C154.202 20.5332 153.759 20.448 153.349 20.2717C152.939 20.0954 152.573 19.8323 152.275 19.5006C151.977 19.1689 151.755 18.7765 151.625 18.3508C151.495 17.925 151.459 17.4761 151.52 17.0351C151.46 16.5928 151.497 16.1429 151.627 15.7159C151.757 15.2889 151.978 14.8948 152.274 14.5601C152.57 14.2255 152.935 13.9583 153.343 13.7765C153.752 13.5947 154.195 13.5025 154.643 13.5063C156.527 13.5063 157.664 14.7903 157.664 16.9113V17.3765H152.882V17.4512C152.861 17.699 152.892 17.9485 152.973 18.1837C153.055 18.4188 153.184 18.6344 153.354 18.8165C153.524 18.9987 153.73 19.1435 153.959 19.2416C154.189 19.3397 154.436 19.3889 154.685 19.3862C155.005 19.4245 155.329 19.367 155.616 19.2212C155.903 19.0754 156.14 18.8478 156.297 18.5673L157.584 18.5674ZM152.881 16.3906H156.303C156.32 16.1639 156.289 15.9362 156.212 15.7221C156.135 15.5081 156.015 15.3123 155.858 15.1476C155.701 14.9828 155.511 14.8526 155.3 14.7653C155.09 14.678 154.863 14.6357 154.635 14.6409C154.404 14.638 154.175 14.6813 153.961 14.7682C153.746 14.8551 153.552 14.9839 153.388 15.1469C153.225 15.31 153.096 15.5041 153.009 15.7177C152.922 15.9313 152.878 16.1601 152.882 16.3906H152.881Z" fill="white"/>
</svg>
